<svg width="32" height="32" viewBox="0 0 32 32" fill="none" xmlns="http://www.w3.org/2000/svg">
<g clip-path="url(#clip0_4208_15313)">
<g clip-path="url(#clip1_4208_15313)">
<path d="M1.02847 26.6966C0.911115 28.1537 2.10373 29.3463 3.56549 29.3463H30.9565C31.3592 29.3463 31.613 28.9129 31.4159 28.5617L17.2618 3.34391C16.918 2.73144 16.1401 2.51792 15.5318 2.86909C6.68247 7.97827 1.82194 16.8453 1.02847 26.6966Z" fill="#FFB949"/>
<path d="M13.4379 22.3096C15.8283 22.3098 17.7658 24.2483 17.766 26.6387C17.766 27.6977 17.3847 28.6676 16.7533 29.4199L10.099 29.3945C9.48049 28.6459 9.10878 27.6854 9.10876 26.6387C9.10899 24.2482 11.0473 22.3096 13.4379 22.3096ZM23.4125 14.8428C23.5305 14.8428 23.6474 14.8482 23.7631 14.8574L27.2836 21.1084C26.5727 22.5268 25.107 23.501 23.4125 23.501C21.0219 23.5008 19.0844 21.5625 19.0844 19.1719C19.0846 16.7814 21.022 14.8429 23.4125 14.8428Z" fill="#FF5B29"/>
<path fill-rule="evenodd" clip-rule="evenodd" d="M2.00962 29.3464C1.13257 29.3464 0.419338 28.6311 0.467471 27.7554C1.03206 17.4833 6.36529 8.16166 15.5306 2.87007C16.141 2.51764 16.9216 2.72679 17.274 3.33722L19.1884 6.65308L18.0831 7.29122C10.0647 11.9207 6.32061 20.4281 5.92554 29.3464H2.00962Z" fill="#FF5B29"/>
<path d="M15.8936 2.59189C16.2161 2.42425 16.6134 2.54982 16.7812 2.87217C16.949 3.19475 16.8235 3.59205 16.501 3.75986C14.0816 5.01794 13.1516 5.68907 11.0371 7.37802C9.70626 8.4411 8.16365 9.9702 6.79492 11.6476C5.42211 13.3299 4.25543 15.1236 3.64258 16.713C2.17605 20.5172 1.71098 23.6029 1.71094 27.67C1.71094 28.0337 1.41639 28.3292 1.05273 28.3292C0.689196 28.3291 0.394531 28.0336 0.394531 27.67C0.394575 23.4687 0.880043 20.2186 2.41406 16.2394C3.09724 14.4675 4.35814 12.5502 5.77441 10.8145C7.19496 9.07371 8.80357 7.47678 10.2158 6.34873C12.376 4.62324 13.378 3.9 15.8936 2.59189Z" fill="black"/>
</g>
</g>
<defs>
<clipPath id="clip0_4208_15313">
<rect width="32" height="32" fill="white"/>
</clipPath>
<clipPath id="clip1_4208_15313">
<rect width="31.6057" height="31.6057" fill="white" transform="translate(0.394409 0.674805)"/>
</clipPath>
</defs>
</svg>
