<svg width="24" height="24" viewBox="0 0 24 24" fill="none" xmlns="http://www.w3.org/2000/svg">
<path fill-rule="evenodd" clip-rule="evenodd" d="M9.98591 4.03582C9.16313 3.97716 8.13037 3.99929 7.2567 4.03991C6.36018 4.0816 5.97748 5.15296 6.57478 5.79058C8.944 8.31979 11.4789 11.3749 11.9941 11.9997C11.995 12.0007 11.9954 12.0016 11.9956 12.0021C11.9957 12.0024 11.9958 12.0028 11.9959 12.0032C11.9959 12.0037 11.9958 12.0048 11.9956 12.0053C11.9954 12.0058 11.995 12.0067 11.9941 12.0078C11.4786 12.6318 8.94407 15.682 6.57503 18.2096C5.97752 18.8471 6.36018 19.9184 7.2567 19.9601C8.1304 20.0007 9.16327 20.0229 9.98612 19.9641C10.6388 19.9176 11.2312 19.627 11.7138 19.2076C13.7741 17.4172 15.8586 14.8652 17.0209 13.361C17.6414 12.5581 17.6418 11.4494 17.0219 10.6461C15.8597 9.14003 13.7747 6.58409 11.7138 4.79254C11.2312 4.373 10.6387 4.08235 9.98591 4.03582Z" fill="#0A0705"/>
</svg>
