<svg width="32" height="32" viewBox="0 0 32 32" fill="none" xmlns="http://www.w3.org/2000/svg">
<path d="M15.3508 15.3691L3.6051 27.675C3.73699 28.1424 3.97401 28.5735 4.29805 28.9353C4.62209 29.2971 5.02456 29.5801 5.4747 29.7625C5.92484 29.9449 6.41073 30.022 6.89523 29.9878C7.37973 29.9537 7.85 29.8092 8.27011 29.5655L21.4862 22.0384L15.3508 15.3691Z" fill="#EA4335"/>
<path d="M27.2276 13.2773L21.5123 10.0039L15.0793 15.6492L21.5386 22.0209L27.2101 18.7825C27.7126 18.5194 28.1334 18.1239 28.4271 17.6386C28.7208 17.1534 28.876 16.5971 28.876 16.0299C28.876 15.4627 28.7208 14.9064 28.4271 14.4212C28.1334 13.936 27.7126 13.5404 27.2101 13.2773H27.2276Z" fill="#FBBC04"/>
<path d="M3.60506 4.32373C3.53406 4.5862 3.49874 4.85704 3.50003 5.12895V26.8698C3.50074 27.1416 3.53604 27.4122 3.60506 27.675L15.7533 15.6843L3.60506 4.32373Z" fill="#4285F4"/>
<path d="M15.4383 15.9994L21.5124 10.004L8.31387 2.44198C7.81734 2.15118 7.2526 1.99716 6.67718 1.99561C5.98223 1.99423 5.30588 2.22013 4.75125 2.63888C4.19661 3.05762 3.79411 3.64623 3.6051 4.31499L15.4383 15.9994Z" fill="#34A853"/>
</svg>
