<svg width="24" height="24" viewBox="0 0 24 24" fill="none" xmlns="http://www.w3.org/2000/svg">
<path d="M20.9178 13.0272C20.792 13.7089 20.1935 14.0281 19.6415 14.0647C19.0878 14.1013 15.6902 14.145 14.1672 14.1672C14.145 15.6902 14.1013 19.0878 14.0647 19.6415C14.0281 20.1935 13.7089 20.792 13.0272 20.9178C12.7652 20.9661 12.4287 21 12 21C11.5713 21 11.2349 20.9661 10.9728 20.9178C10.2911 20.792 9.97187 20.1935 9.93533 19.6415C9.89868 19.0878 9.85501 15.6902 9.83276 14.1672C8.30976 14.145 4.91219 14.1013 4.35846 14.0647C3.80653 14.0281 3.20801 13.7089 3.08225 13.0272C3.0339 12.7651 3 12.4287 3 12C3 11.5713 3.0339 11.2348 3.08224 10.9728C3.20801 10.2911 3.80653 9.97187 4.35846 9.93533C4.91219 9.89868 8.30976 9.85501 9.83276 9.83276C9.85501 8.30976 9.89868 4.9122 9.93533 4.35846C9.97187 3.80651 10.2911 3.208 10.9728 3.08224C11.2349 3.03389 11.5713 3 12 3C12.4287 3 12.7652 3.03389 13.0272 3.08224C13.7089 3.208 14.0281 3.80651 14.0647 4.35846C14.1013 4.9122 14.145 8.30976 14.1672 9.83276C15.6902 9.85501 19.0878 9.89868 19.6415 9.93533C20.1935 9.97187 20.792 10.2911 20.9178 10.9728C20.9661 11.2348 21 11.5713 21 12C21 12.4287 20.9661 12.7651 20.9178 13.0272Z" fill="#0A0705"/>
</svg>
