<svg width="460" height="468" viewBox="0 0 460 468" fill="none" xmlns="http://www.w3.org/2000/svg">
<g clip-path="url(#clip0_4212_12724)">
<path d="M56.9165 348.684L43.1098 351.776L87.007 81.1206L102.008 91.5172L98.8946 76.6702L373.816 123.632L362.997 137.791L378.397 134.916L330.426 404.251L316.905 394.437L320.089 410.3L46.7218 361.397L56.9165 348.684Z" fill="white"/>
<path d="M41.9438 351.586L85.841 80.9306C85.9811 80.0672 86.9804 79.6508 87.6919 80.1592L100.722 89.4425L97.9344 76.9041C97.7517 76.0857 98.4586 75.3429 99.2865 75.4845L374.016 122.47C374.899 122.622 375.3 123.673 374.738 124.372L364.815 136.748L378.142 133.764C378.983 133.576 379.705 134.309 379.562 135.123L331.591 404.457C331.434 405.339 330.389 405.73 329.691 405.17L318.265 396.009L321.247 410.054C321.394 410.743 320.908 411.397 320.221 411.473L46.5191 362.557C45.6153 362.395 45.2345 361.309 45.8378 360.618L55.155 349.947L43.4038 352.917C42.5958 353.129 41.8131 352.427 41.9483 351.583L41.9438 351.586ZM316.888 393.334L361.999 137.752L103.374 92.1887L58.1724 347.732L316.89 393.334L316.888 393.334ZM100.623 78.107L103.213 89.7598L362.793 135.491L371.64 124.456L100.622 78.1047L100.623 78.107ZM329.613 402.086L376.925 136.456L364.115 139.324L319.195 393.734L329.613 402.086ZM318.571 408.828L315.639 395.517L58.1381 350.118L48.9853 360.6L318.571 408.826L318.571 408.828ZM55.843 347.349L100.924 92.4843L87.8678 83.1825L44.5622 350.191L55.8406 347.349L55.843 347.349Z" fill="#0A0705"/>
<path d="M228.794 251.97C243.677 236.884 274.124 220.637 292.481 211.171C297.702 208.478 302.686 205.725 307.929 203.381C308.858 202.884 313.203 198.81 319.12 205.097C346.375 234.055 336.38 239.56 333.576 259.697C332.91 264.481 335.854 277.068 330.707 280.053C324.582 283.603 311.297 280.419 304.957 279.938C304.105 279.823 272.699 276.856 256.955 274.021C247.529 272.324 236.738 271.001 228.215 266.376C221.071 262.499 224.208 256.617 228.791 251.971L228.794 251.97Z" fill="#FFB949"/>
<path d="M228.794 251.97C237.802 259.193 251 253.636 250.633 239.743C250.569 239.161 250.377 237.413 249.752 237.09L249.042 235.99C242.154 240.738 234.298 246.36 228.796 251.97L228.794 251.97Z" fill="#02925C"/>
<path d="M267.55 272.069C267.248 272.888 266.426 274.354 267.115 275.259L266.962 275.668C277.958 277.406 288.893 278.559 299.998 279.498L299.977 279.304C302.745 272.32 295.421 262.639 289.127 261.047C280.336 258.822 271.239 264.407 267.549 272.067L267.55 272.069Z" fill="#FF7B52"/>
<path d="M321.721 275.156C322.219 275.101 322.644 274.734 322.749 274.216C326.735 254.531 324.589 234.409 316.546 216.026C315.99 214.667 315.229 213.316 314.491 212.013C313.427 209.097 312.42 209.333 312.038 209.425C311.063 209.656 310.653 211.321 311.795 211.834C321.834 229.834 324.573 253.303 320.436 273.746C320.275 274.531 320.933 275.24 321.721 275.153L321.721 275.156Z" fill="#0A0705"/>
<path d="M265.55 244.979L270.293 247.012L266.033 256.519L261.292 254.485L265.55 244.979Z" fill="white"/>
<path d="M308.86 220.762C311.51 223.924 312.259 228.495 311.263 231.894C309.29 240.757 297.431 246.086 290.227 238.924C287.477 236.188 285.987 231.231 287.653 226.241C289.897 219.514 302.203 212.821 308.86 220.765L308.86 220.762Z" fill="#02925C"/>
<path d="M225.926 272.325L250.766 276.666C273.007 282.788 291.604 289.602 313.05 298.104C313.862 298.425 319.769 298.925 318.776 307.298C314.17 346.169 302.597 343.055 286.529 353.481C282.352 356.19 274.77 366.404 269.307 364.806C262.588 362.84 256.792 351.055 253.087 345.961C252.161 344.688 232.286 315.833 232.286 315.833C230.412 313.092 228.709 310.137 227.032 307.374C222.227 299.456 216.528 290.853 214.573 281.631C212.864 273.57 219.434 272.256 225.926 272.325Z" fill="#FFB949"/>
<path d="M248.993 280.2C246.494 282.696 242.661 284.434 239.477 284.784C232.171 285.588 225.686 279.67 225.926 272.325C232.836 272.548 243.869 274.75 250.745 276.471C250.251 278.765 250.598 278.2 248.993 280.2Z" fill="#02925C"/>
<path d="M234.637 314.002C237.528 313.487 240.718 313.922 243.414 315.198C247.92 316.864 251.626 320.187 254.058 324.44C256.834 330.027 256.025 340.529 250.307 342.142L250.113 342.163C243.847 333.423 237.774 324.659 232.069 315.66L232.435 315.423C232.522 314.43 233.86 314.088 234.637 314.002Z" fill="#02925C"/>
<path d="M250.139 295.988L248.943 306.532L253.925 307.165L254.928 296.641L250.139 295.988Z" fill="white"/>
<path d="M267.544 314.899C267.372 325.725 279.925 332.327 287.673 328.206C289.915 327.014 291.688 325.406 292.617 323.144C298.327 312.136 285.608 302.228 274.63 304.298C271.803 305.395 269.688 307.592 268.412 310.286C268.001 311.903 267.569 313.326 267.544 314.899Z" fill="#FF7B52"/>
<path d="M268.68 354.968C281.617 347.772 292.872 337.525 301.226 325.328C303.731 321.592 306.578 317.16 308.771 312.56C309.414 311.323 310.098 310.006 310.563 308.472C311.906 305.93 311.27 305.423 310.893 305.12C310.053 304.443 308.473 305.237 308.872 306.466C306.634 312.484 302.844 318.668 299.27 324.002C291.129 335.888 280.153 345.884 267.531 352.902C266.184 353.651 267.297 355.733 268.68 354.965L268.68 354.968Z" fill="#0A0705"/>
<path d="M121.373 122.548C125.657 113.97 127.028 104.252 134.772 97.8915C139.459 94.0409 145.331 92.0291 150.954 89.6265C157.715 86.7402 166.989 78.264 174.516 78.7826C181.244 79.2466 183.927 87.5734 185.693 92.8777C187.431 98.0925 188.96 103.328 190.363 108.66C190.424 108.891 200.186 154.129 200.228 154.364C201.853 163.542 205.077 183.127 205.866 186.931C207.876 203.41 187.635 194.438 179.402 189.251C135.17 155.499 153.917 168.818 135.875 154.355C129.412 149.173 119.25 143.23 116.809 134.644C115.457 129.887 119.411 126.476 121.371 122.55L121.373 122.548Z" fill="#FFB949"/>
<path d="M144.302 139.868C142.231 140.685 137.48 140.642 140.415 143.832C141.737 145.269 144.246 144.751 145.979 144.398C154.038 142.761 153.461 136.806 156.689 131.04C158.12 128.483 161.158 127.011 158.79 123.343C158.317 122.609 154.93 125.737 154.754 125.949C152.366 128.817 151.534 132.393 149.719 135.541C148.358 137.458 146.371 139.051 144.302 139.87L144.302 139.868Z" fill="white"/>
<path d="M152.295 167.869C156.726 171.611 174.427 186.362 179.575 189.032L179.749 188.816C186.03 183.41 185.579 172.268 179.837 166.408C170.9 157.287 153.794 165.067 153.008 167.199L152.295 167.866L152.295 167.869Z" fill="#02925C"/>
<path d="M190.997 114.298C183.747 118.044 179.164 128.175 180.816 136.047C182.468 143.92 191.561 151.565 199.562 152.846L200.144 152.782C198.799 144.707 195.688 128.675 191.969 114.191L190.997 114.298Z" fill="#FF7B52"/>
<path d="M127.112 134.27C134.691 122.871 144.4 113.041 155.965 105.051C159.893 102.419 169.809 95.9365 174.317 94.5071C175.799 94.0352 175.101 91.7867 173.604 92.2578C172.023 92.7596 171.452 93.0385 171.19 93.2408C169.945 93.9335 168.726 94.4263 167.402 95.1752C150.205 104.668 136.021 116.611 125.144 132.964C124.274 134.276 126.259 135.547 127.112 134.272L127.112 134.27Z" fill="#0A0705"/>
<path d="M89.7709 216.971C91.3781 212.258 90.9853 199.513 96.4767 197.569C103.086 195.229 115.482 201.098 121.811 202.838C122.612 203.059 141.225 207.921 167.904 218.201C176.791 221.624 187.101 225.159 194.503 231.385C202.484 238.096 192.417 245.866 183.743 249.661C163.572 260.263 142.771 266.573 120.659 272.713C115.12 274.252 109.612 275.893 103.875 277.311C102.925 277.612 97.7675 280.733 93.2477 273.568C71.752 239.504 83.7671 234.572 89.7712 216.974L89.7709 216.971Z" fill="#FFB949"/>
<path d="M104.822 239.481C102.798 243.727 102.407 249.737 105.108 254.577C111.401 265.856 127.062 262.515 134.612 253.098C137.532 247.817 137.701 241.863 134.307 236.039C126.771 224.688 109.909 228.807 104.822 239.481Z" fill="#FF7B52"/>
<path d="M133.413 224.35C145.895 230.373 159.472 217.725 157.9 214.779L158.053 214.371C147.618 210.607 137.033 207.254 126.469 204.093C122.242 209.364 126.939 221.229 133.413 224.352L133.413 224.35Z" fill="#02925C"/>
<path d="M155.227 233.249L160.19 236.717L151.354 249.363L146.391 245.895L155.227 233.249Z" fill="white"/>
<path d="M175.563 241.12C180.251 238.977 186.773 241.475 190.567 245.2C184.549 249.266 174.065 253.923 167.821 256.715C165.895 252.53 169.324 243.972 175.563 241.12Z" fill="white"/>
<path d="M101.447 268.011C95.6914 249.683 96.1912 226.227 105.08 205.658C105.339 205.059 105.063 204.365 104.465 204.106C103.869 203.846 103.174 204.122 102.913 204.721C97.0607 218.262 94.5148 233.269 95.5473 248.114C95.9269 253.443 96.8632 262.254 98.8303 267.223C99.5612 273.002 103.386 269.277 101.447 268.011Z" fill="#0A0705"/>
<path d="M168.394 255.488C168.085 254.731 168.599 250.404 170.816 246.908C174.286 241.037 182.911 238.794 189.194 245.083C189.653 245.543 190.399 245.547 190.864 245.085C191.324 244.623 191.325 243.877 190.865 243.415C181.677 234.212 167.658 240.013 166.096 253.294C166.008 253.682 165.541 256.215 166.851 257.266C168.008 258.195 169.498 256.518 168.399 255.487L168.394 255.488Z" fill="#0A0705"/>
<path d="M146.495 314.663C147.212 313.534 175.554 263.206 190.729 252.427C197.285 247.77 201.334 253.198 203.468 259.277C212.269 284.346 213.165 324.436 214.284 350.428C214.39 351.4 216.191 357.076 208.213 359.545C170.655 371.167 169.785 360.241 152.627 348.961C148.574 346.295 135.841 343.537 135.278 337.706C134.586 330.509 143.062 320.074 146.495 314.663Z" fill="#FFB949"/>
<path d="M180.37 318.99C175.162 328.798 183.927 340.567 192.942 340.397C197.061 340.319 200.946 338.321 203.147 334.951C207.319 328.568 204.154 320.891 198.767 316.571C191.978 309.917 182.843 313.288 180.368 318.988L180.37 318.99Z" fill="#FF7B52"/>
<path d="M199.392 279.371C201.131 281.168 203.097 282.697 205.556 283.605C206.159 283.736 207.798 284.341 208.337 283.888L209.501 283.76C208.096 274.071 206.088 266.428 203.641 259.061C194.999 262.591 193.68 273.468 199.392 279.371Z" fill="#02925C"/>
<path d="M205.238 352.461C208.645 352.086 206.337 348.718 204.877 350.131C202.406 350.343 201.599 350.384 199.308 350.311C179.195 349.322 160.759 342.617 145.601 331.375C145.079 330.986 144.34 331.096 143.949 331.621C143.56 332.146 143.67 332.885 144.195 333.274C159.715 344.784 178.588 351.66 199.211 352.671C201.023 352.73 202.68 352.745 205.236 352.464L205.238 352.461Z" fill="#0A0705"/>
<path d="M263.095 144.067C266.531 138.689 270.124 133.429 285.435 118.284C282.076 120.003 278.668 121.409 275.065 122.515C274.31 122.796 270.509 124.197 270.169 122.66C269.704 120.552 275.049 117.014 276.322 116.09C282.863 111.244 302.675 99.3784 310.251 95.0081C312.988 96.6713 339.537 113.849 345.984 115.301C345.098 117.7 322.73 135.95 313.016 149.579C312.001 151.066 306.318 160.14 303.624 158.864C299.787 156.953 308.186 143.414 306.985 142.972C305.97 142.689 303.466 146.698 302.946 147.345C298.605 152.537 294.243 157.537 289.452 162.19C288.76 163.052 284.345 167.89 282.826 166.259C281.681 165.028 283.5 161.85 283.998 160.826C289.97 148.468 297.647 141.147 297.198 139.728C297.004 139.749 290.743 145.35 290.399 145.78C285.26 150.863 280.007 155.816 274.553 160.687C273.824 161.337 269.908 165.146 268.597 163.701C266.994 161.934 271.064 155.767 271.886 154.301C275.861 147.577 280.247 141.004 285.279 134.949C285.775 134.109 290.049 130.104 289.729 128.959C286.25 131.536 284.785 132.923 282.369 135.27C277.382 139.944 272.2 144.64 266.976 148.949C265.898 149.853 262.339 153.413 260.676 152.392C258.542 151.086 262.43 145.126 263.1 144.069L263.095 144.067Z" fill="white"/>
<path d="M310.16 95.0768C313.716 97.4336 342.682 115.958 346.974 115.389C381.274 110.829 452.764 -25.4242 452.764 -25.4242C452.764 -25.4242 364.414 -16.8034 363.15 -13.548C345.934 30.763 309.946 94.9032 310.16 95.0768C309.965 95.0982 309.944 94.9034 310.16 95.0768Z" fill="#FF7B52"/>
<path d="M262.057 143.043C270.211 130.277 277.097 125.032 280.969 121.243C279.134 122.001 277.294 122.662 275.426 123.235C273.025 124.124 269.522 125.013 268.969 122.506C268.452 120.16 271.673 117.534 275.173 115.043C284.896 108.118 309.111 93.9313 309.597 93.778C311.487 92.5583 312.521 95.2615 310.857 95.7747C309.13 96.8911 272.667 117.432 271.303 121.794C271.679 121.816 272.629 121.755 274.677 121C286.645 117.324 288.505 113.571 290.408 114.264C291.309 114.597 291.439 115.284 291.453 115.562C291.532 117.166 288.9 117.808 287.614 118.624C285.649 120.077 283.759 121.751 281.582 123.964C275.106 129.392 269.207 136.24 263.981 144.42C261.085 148.967 261.127 150.52 261.228 150.987C261.407 151.076 262.23 151.133 265.601 148.154C267.542 146.437 271.434 143.467 281.519 134.013C283.938 131.667 285.404 130.268 288.98 127.62C289.638 127.13 290.595 127.45 290.818 128.249C291.396 130.3 287.092 133.885 286.14 135.315C280.636 141.939 276.566 148.299 272.416 155.262C268.812 161.304 269.304 162.38 269.318 162.448C271.969 162.624 294.96 138.392 297.026 138.165C297.584 138.103 298.111 138.444 298.279 138.982C299.084 141.522 292.621 145.625 285.027 160.931C284.329 162.335 283.484 164.062 283.564 165.013C284.309 165.152 287.07 162.834 288.588 160.955C293.633 156.055 298.201 150.745 301.985 146.22C303.322 144.533 305.249 140.892 307.352 141.477C307.708 141.609 308.048 141.995 308.147 142.361C308.419 143.343 307.584 145.233 306.667 147.324C302.773 156.206 303.84 157.288 304.084 157.411C304.084 157.411 305.683 158.021 311.632 149.075C319.058 137.907 335.223 124.532 344.77 114.717C345.221 114.247 345.971 114.241 346.439 114.693C346.907 115.147 346.918 115.894 346.461 116.362C336.357 126.749 322.18 137.917 313.946 149.856C311.543 153.339 306.563 161.202 303.053 159.532C300.056 158.04 301.666 152.901 304.069 147.366C302.98 148.887 295.787 157.258 290.33 162.542C288.359 165.001 284.087 169.003 281.905 166.659C280.362 165.002 281.816 162.118 282.656 160.408C291.013 143.406 299.569 139.431 275.241 161.228C273.085 163.159 269.585 166.212 267.663 164.091C265.538 161.745 269.11 156.217 270.824 153.311C283.329 132.109 288.384 132.394 267.685 149.462L267.17 149.915C265.323 151.562 262.209 154.354 259.994 152.997C257.1 151.222 260.241 145.894 262.057 143.043Z" fill="#0A0705"/>
<path d="M296.149 118.452C295.653 118.029 295.595 117.282 296.018 116.787C296.443 116.291 297.187 116.233 297.683 116.656C301.448 119.878 311.901 119.49 317.696 112.266C318.103 111.758 318.847 111.676 319.355 112.084C319.863 112.491 319.945 113.235 319.537 113.743C312.925 121.988 300.96 122.563 296.148 118.449L296.149 118.452Z" fill="#0A0705"/>
<path d="M222.254 219.693C223.983 195.756 237.753 156.192 246.24 133.741C246.549 132.923 246.853 126.747 255.543 127.216C295.025 129.345 292.234 140.891 303.625 157.093C306.44 161.097 317.267 168.183 315.683 173.842C313.748 180.758 301.95 187.484 296.794 191.443C292.552 194.7 273.683 209.688 257.707 220.106C249.806 225.258 240.916 231.777 231.553 234.183C222.831 236.423 221.606 228.677 222.254 219.693Z" fill="#FFB949"/>
<path d="M222.731 214.72C223.585 209.148 224.447 203.529 225.79 197.88L226.996 198.139C227.752 197.859 229.065 199.09 229.303 199.458C239.808 209.986 232.043 223.588 221.901 223.26C222.162 220.283 222.299 217.532 222.728 214.72L222.731 214.72Z" fill="white"/>
<path d="M248.791 191.117L252.341 201.048L247.559 202.758L244.009 192.827L248.791 191.117Z" fill="white"/>
<path d="M246.574 163.568C246.16 166.57 246.243 169.497 247.34 172.324C249.887 177.858 255.351 181.152 259.903 181.158C271.785 182.012 277.135 167.533 271.723 158.245C265.027 146.752 248.84 147.119 246.571 163.566L246.574 163.568Z" fill="#FF7B52"/>
<path d="M265.647 213.729L265.885 214.094C275.015 207.786 283.907 201.109 292.583 194.259L292.366 194.086C289.635 187.116 277.646 185.293 271.886 188.285C259.698 196.785 262.767 213.473 265.647 213.726L265.647 213.729Z" fill="#02925C"/>
<path d="M305.472 174.854C297.601 161.998 287.145 151.565 274.398 143.847C269.074 140.47 262.477 137.13 256.117 135.179C254.829 134.786 253.9 134.501 253.393 135.457C252.957 136.287 253.811 137.665 254.931 137.286C261.602 139.309 267.998 142.584 273.151 145.853C285.595 153.389 295.782 163.555 303.453 176.086C304.266 177.409 306.284 176.187 305.467 174.852L305.472 174.854Z" fill="#0A0705"/>
<path d="M135.973 341.788C143.063 327.647 151.747 313.725 163.145 303.039C166.88 299.486 173.161 294.078 178.725 294.646C187.398 295.409 167.538 311.772 158.567 329.281L158.784 329.454C165.26 322.257 175.383 316.037 172.003 329.964L172.241 330.33C177.182 327.036 181.886 326.912 180.54 334.329C180.15 336.139 179.739 337.756 179.133 339.395C182.545 336.464 187.167 333.528 190.612 334.793C194.959 336.386 194.94 341.979 192.93 346.915C191.325 352.69 185.696 358.497 180.329 361.275C174.767 379.411 173.384 379.903 167.331 387.453C161.902 382.746 133.727 371.307 125.318 369.874C126.276 363.814 133.377 347.339 135.98 341.785L135.973 341.788Z" fill="white"/>
<path d="M16.4301 506.722C16.7093 506.475 73.5946 425.241 80.2042 418.521C101.777 396.516 119.208 368.717 123.98 368.66C125.975 363.45 128.846 354.227 134.917 341.258C143.429 324.279 152.397 311.495 162.349 302.167C165.931 298.906 172.612 292.836 178.826 293.471C180.673 293.634 181.428 294.532 181.738 295.255C183.766 300.001 172.303 309.412 163.09 323.798C170.254 318.273 175.13 319.822 173.782 328.768C176.524 327.379 178.895 327.168 180.46 328.224C182.995 329.935 182.292 333.777 181.552 336.74C184.686 334.597 188.382 332.908 191.468 334.038C195.854 335.646 196.911 340.703 194.478 347.624C191.665 356.356 183.411 362.276 181.444 361.886C178.484 371.292 175.875 380.242 168.849 387.516C169.004 387.717 169.128 387.913 169.242 388.088C171.588 391.723 161.036 423.641 153.035 439.582C145.975 453.525 117.327 505.082 113.72 505.479C112.061 505.661 74.8039 551.281 16.516 508.56C15.9087 508.114 15.8677 507.223 16.4327 506.724L16.4301 506.722ZM180.003 358.819C180.388 357.725 181.253 350.67 182.997 349.533C184.028 348.864 185.274 349.612 185.037 350.715C184.947 351.128 184.654 351.443 184.284 351.576C183.595 352.764 182.68 357.724 182.375 359.055C186.977 356.537 190.532 352.174 192.243 346.872C193.171 344.231 194.905 337.817 190.658 336.258C185.942 334.528 178.012 342.521 174.862 346.357C174.726 346.481 174.451 346.917 174.284 347.235C174.174 348.527 172.215 348.857 171.878 347.478C171.421 345.605 177.456 340.164 178.391 339.249C179.088 337.251 180.909 331.371 179.146 330.183C178.118 329.493 175.715 330.171 173.164 331.872C170.308 333.811 167.744 336.499 165.746 339.65C165.396 340.199 164.668 340.365 164.117 340.014C163.568 339.666 163.404 338.936 163.752 338.385C165.744 335.244 168.266 332.52 171.088 330.452C171.104 330.21 172.578 324.003 170.746 323.067C168.992 322.177 164.031 325.395 159.592 330.318C158.255 331.572 157.106 333.007 156.173 334.582C155.392 335.906 153.341 334.732 154.14 333.381C156.194 329.903 159.632 324.896 160.453 323.572C167.904 311.572 180.682 298.811 179.569 296.185C179.455 295.92 178.814 295.843 178.606 295.825C173.4 295.296 167.251 300.906 163.951 303.905C154.219 313.028 145.412 325.593 137.043 342.293C132.744 351.473 129.594 359.713 126.485 368.929C135.232 370.995 159.961 380.886 167.157 386.013C174.786 378.074 177.072 367.16 180.003 358.824L180.003 358.819Z" fill="#02925C"/>
<path d="M53.1718 78.5188C53.0155 77.3579 52.9153 76.1885 52.4 75.067C45.2671 69.1727 -35.6717 29.942 -37.4201 30.1343C-38.9737 30.3053 -28.1289 114.577 -28.1289 114.577C-28.1289 114.577 52.6304 120.033 54.5098 117.47C56.9712 112.727 53.8903 83.8624 53.1718 78.5188Z" fill="white"/>
<path d="M53.3664 78.4973C54.4368 86.4339 55.9693 105.716 55.4864 113.826C72.1711 120.831 90.4704 119.691 107.297 125.806C114.848 128.553 121.651 132.828 129.068 136.183C130.105 136.653 134.714 139.295 135.752 138C136.961 136.492 132.372 132.282 131.705 131.569C127.116 127.36 122.112 123.699 116.728 120.446C115.657 119.799 111.576 118.262 111.253 117.12C110.979 116.375 115.838 118.674 117.98 119.327C130.202 124.215 140.868 131.326 141.219 128.755C141.35 126.382 136.834 122.965 135.338 121.74C119.201 108.53 112.672 109.315 109.238 105.947C108.868 105.375 115.017 107.266 119.219 109.172C136.436 116.978 140.536 121.793 142.22 120.002C143.643 118.489 139.84 114.578 138.971 113.68C128.932 103.301 113.718 98.2028 109.315 95.9202C109.517 94.9883 124.096 99.783 134.278 104.962C134.687 105.114 141.402 109.088 141.499 108.096C141.677 106.304 138.464 103.933 137.407 103.045C132.749 99.1326 127.663 95.5948 122.321 92.7196C104.58 83.1755 69.8762 76.6807 53.3664 78.4973Z" fill="#EBE0D6"/>
<path d="M-38.1938 29.4093C-37.998 29.1597 -37.6716 28.9742 -37.3548 28.9393C-34.3837 28.6124 47.8394 69.5854 53.3468 74.1337C53.9301 74.6206 54.2807 76.4038 54.3917 77.154C72.9103 76.2589 104.719 81.3907 122.984 91.0599C128.268 93.8585 133.574 97.1842 138.355 101.587C140.089 103.185 142.882 105.464 142.807 107.553C142.792 107.994 142.387 108.57 141.984 108.75C140.345 109.479 134.902 106.076 133.845 105.392C130.758 103.822 127.808 102.455 124.954 101.278C129.866 103.91 135.495 107.5 139.936 112.237C141.938 114.247 145.261 118.285 143.2 120.212C141.674 121.798 138.827 120.249 136.472 118.834C134.117 117.418 131.557 116.047 128.787 114.594C131.306 116.307 133.724 118.231 136.205 120.21C139.205 122.602 142.677 125.512 142.526 128.184C142.496 128.724 142.241 129.196 141.797 129.48C139.533 130.922 132.271 126.419 122.145 121.75C126.348 124.589 131.089 128.547 133.046 130.507C135.887 133.354 138.324 136.233 136.804 138.129C135.244 140.078 130.85 137.92 128.705 136.645C121.492 133.33 114.481 128.971 107.019 126.305C90.8488 120.326 73.0701 121.318 56.5929 114.882C56.4702 115.991 56.0411 117.617 55.6591 118.139C53.2308 121.456 -23.0204 116.065 -28.0121 115.728C-28.5745 115.69 -29.0329 115.259 -29.1037 114.701C-39.813 31.4662 -38.5919 29.9139 -38.1922 29.402L-38.1938 29.4093ZM82.9835 118.548C112.314 123.026 112.485 126.566 129.797 134.563C131.669 135.671 134.009 136.586 134.876 136.584C133.991 133.097 120.084 122.578 115.932 120.723C112.058 118.993 110.566 117.981 110.272 116.926C110.109 116.481 110.237 115.768 110.584 115.443C111.57 114.522 113.103 115.605 114.355 116.08C122.606 118.6 135.487 126.208 139.973 127.318C139.16 125.609 136.167 123.209 134.706 122.04C117.275 108.082 112.204 110.134 108.372 105.981C108.097 105.555 108.104 104.865 108.421 104.467C110.666 101.66 134.651 114.982 137.895 116.936C140.645 118.593 141.418 118.563 141.48 118.63C141.595 118.052 140.211 115.864 138.235 113.88C129.091 104.126 112.982 98.4857 108.895 96.3606C108.019 95.906 108.05 94.6318 108.986 94.2034C110.205 93.6465 116.014 95.6509 116.014 95.6509C133.689 100.663 143.685 109.618 137.42 103.939C133.25 100.149 129.367 97.1127 121.896 93.1581C104.59 83.9962 72.9942 78.6629 54.6862 79.5064C55.6395 87.2421 56.9733 103.876 56.7287 112.404C65.1718 115.829 74.2238 117.211 82.9859 118.548L82.9835 118.548ZM-26.8883 113.443C2.49864 115.414 48.9289 117.913 53.7838 116.595C55.7026 111.626 52.7753 83.9207 52.1928 78.6263C52.082 77.6196 51.9772 76.6668 51.6259 75.7838C43.4286 69.4556 -25.9756 35.9721 -36.2087 31.7134C-36.0245 39.864 -30.7294 83.5413 -26.8909 113.441L-26.8883 113.443Z" fill="#0A0705"/>
<path d="M33.1929 218.199C27.8623 227.218 30.6405 238.069 38.2279 243.906C29.9399 238.588 18.5374 240.711 12.3172 248.747C17.6922 239.657 15.0708 229.238 8.01896 223.347C16.7146 228.095 27.3224 225.764 33.1905 218.2L33.1929 218.199Z" fill="#FFB949"/>
<path d="M236.879 52.253C238.584 47.6452 238.751 42.4702 237.244 37.7619C241.456 47.1581 252.33 51.8664 262.175 48.3462C257.687 50.5145 254.162 54.1328 251.925 58.6519C250.261 63.1508 250.06 68.1917 251.454 72.8078C246.896 63.4212 236.103 59.0746 226.459 62.6177C230.907 60.4657 234.623 56.8075 236.879 52.2506L236.879 52.253Z" fill="#FFB949"/>
<path d="M398.903 227.201C401.278 222.444 401.731 216.81 399.845 211.543C402.014 216.033 405.633 219.563 410.154 221.8C415.166 223.569 420.482 223.682 425.342 221.932C420.562 224.058 416.816 227.798 414.477 232.523C412.686 237.366 412.592 242.835 414.354 247.731C412.229 242.941 408.483 239.187 403.756 236.848C398.888 235.049 393.392 234.962 388.477 236.75C393.026 234.748 396.453 232.11 398.903 227.201Z" fill="#FFB949"/>
</g>
<defs>
<clipPath id="clip0_4212_12724">
<rect width="460" height="468" fill="white" transform="matrix(-1 0 0 1 460 0)"/>
</clipPath>
</defs>
</svg>
