<svg width="24" height="24" viewBox="0 0 24 24" fill="none" xmlns="http://www.w3.org/2000/svg">
<path fill-rule="evenodd" clip-rule="evenodd" d="M6.74738 1.36335C10.3216 0.878585 13.6929 0.878584 17.2671 1.36335C19.2649 1.63432 20.8805 3.19063 21.0687 5.16863C21.4489 9.16016 21.5722 13.091 21.2205 17.1128C21.2224 17.1428 21.2226 17.1731 21.2208 17.2036C21.2039 17.5171 21.0019 17.7905 20.7071 17.8986C19.8619 18.209 19.4021 18.7271 19.4021 19.4768C19.4021 20.2266 19.8619 20.7447 20.7071 21.055C21.0018 21.1631 21.2039 21.4366 21.2208 21.7501C21.2378 22.0636 21.0665 22.3571 20.7852 22.4965C20.5646 22.6059 20.3283 22.6937 20.0817 22.7581C20.0038 22.7786 19.9249 22.7966 19.8452 22.8122L19.8202 22.8169C19.6243 22.854 19.4231 22.8766 19.2196 22.8837C14.8015 23.0385 10.4364 23.0385 6.01827 22.8837C5.02514 22.849 4.19376 22.4673 3.61519 21.8225C3.04374 21.1858 2.76822 20.348 2.76822 19.4768C2.76822 19.4336 2.76891 19.3904 2.77026 19.3473C2.47104 14.6028 2.49391 9.91397 2.9457 5.16863C3.13402 3.19063 4.74954 1.63432 6.74738 1.36335ZM17.4378 19.4768C17.4378 19.9976 17.5456 20.5017 17.7642 20.964C13.8637 21.072 9.99655 21.0575 6.087 20.9207C5.57635 20.9027 5.26632 20.7214 5.07715 20.5107C4.87736 20.288 4.73251 19.9412 4.73251 19.4768C4.73251 19.0125 4.87736 18.6657 5.07715 18.443C5.26632 18.2323 5.57635 18.0509 6.087 18.033C9.99655 17.8961 13.8637 17.8817 17.7642 17.9895C17.5457 18.4519 17.4378 18.9561 17.4378 19.4768ZM10.9767 3.68397C11.2504 3.4103 11.6291 3.29142 12.0478 3.29142C12.4665 3.29142 12.8452 3.4103 13.1188 3.68397C13.3925 3.95764 13.5114 4.33633 13.5114 4.75501C13.5114 5.17369 13.3925 5.55239 13.1188 5.82605C12.8452 6.09972 12.4665 6.2186 12.0478 6.2186C11.6291 6.2186 11.2504 6.09972 10.9767 5.82605C10.7031 5.55239 10.5842 5.17369 10.5842 4.75501C10.5842 4.33633 10.7031 3.95764 10.9767 3.68397ZM8.75951 8.17998C8.91715 7.70076 9.43341 7.44007 9.91264 7.5977C10.5533 7.80845 11.1199 7.80845 11.7606 7.5977C12.0389 7.50615 12.3442 7.55366 12.5816 7.72545C12.8189 7.89722 12.9594 8.17242 12.9594 8.46541V13.286C13.5349 13.3141 14.1123 13.3688 14.6954 13.4499C15.1951 13.5195 15.5438 13.9809 15.4742 14.4806C15.4047 14.9803 14.9432 15.3289 14.4436 15.2593C12.8265 15.0342 11.2646 15.0342 9.64752 15.2593C9.14785 15.3289 8.68642 14.9803 8.61686 14.4806C8.54733 13.9809 8.896 13.5195 9.39568 13.4499C9.97904 13.3687 10.5568 13.3141 11.1326 13.286V9.57273C10.5389 9.61253 9.94836 9.53265 9.34179 9.33311C8.86256 9.17548 8.60187 8.65921 8.75951 8.17998Z" fill="#027A4D"/>
</svg>
