<svg width="106" height="44" viewBox="0 0 106 44" fill="none" xmlns="http://www.w3.org/2000/svg">
<g clip-path="url(#clip0_2070_24219)">
<path d="M0.669864 27.4929C0.545878 29.0323 1.80587 30.2923 3.35022 30.2923H32.2888C32.7142 30.2923 32.9823 29.8344 32.7741 29.4634L17.8203 2.82085C17.4571 2.17378 16.6352 1.9482 15.9926 2.31921C6.64329 7.71704 1.50816 17.085 0.669864 27.4929Z" fill="#FFB949"/>
<path d="M13.7798 22.8589C16.3056 22.8589 18.353 24.9064 18.353 27.4321C18.3529 28.5509 17.9499 29.5749 17.2827 30.3696L10.2524 30.3423C9.59928 29.5516 9.20666 28.5378 9.20654 27.4321C9.20654 24.9064 11.254 22.8589 13.7798 22.8589ZM24.3188 14.9702C24.4438 14.9702 24.5675 14.976 24.6899 14.9858L28.4077 21.5884C27.6567 23.0867 26.1089 24.1166 24.3188 24.1167C21.7932 24.1167 19.7458 22.0691 19.7456 19.5435C19.7456 17.0177 21.7931 14.9702 24.3188 14.9702Z" fill="#FF5B29"/>
<path fill-rule="evenodd" clip-rule="evenodd" d="M1.70634 30.2919C0.779736 30.2919 0.0262061 29.5362 0.0770587 28.611C0.673545 17.7586 6.30809 7.91025 15.9912 2.3197C16.6361 1.94735 17.4608 2.16832 17.8331 2.81324L19.8557 6.31644L18.688 6.99063C10.2165 11.8816 6.26088 20.8697 5.84349 30.2919H1.70634Z" fill="#FF5B29"/>
<path d="M0.695679 28.5218C0.695679 24.1537 1.1975 20.8075 2.78261 16.6957C4.15173 13.1442 7.91213 8.85433 10.8104 6.53934C13.0686 4.73559 14.0887 3.99918 16.6957 2.64355" stroke="#0A0705" stroke-width="1.2" stroke-linecap="round"/>
</g>
<path d="M62.6214 4.7958C63.2414 4.9158 63.7014 5.1258 64.0014 5.4258C64.3214 5.7258 64.4814 6.0758 64.4814 6.4758C64.4814 7.1358 64.2914 7.6158 63.9114 7.9158C63.5514 8.2158 62.9714 8.3358 62.1714 8.2758C60.3714 8.1358 58.9614 8.0458 57.9414 8.0058C56.9414 7.9458 55.6214 7.9058 53.9814 7.8858C53.2414 11.5658 52.5614 15.2658 51.9414 18.9858C51.7214 20.3458 51.4914 21.9258 51.2514 23.7258C51.0114 25.5058 50.8514 26.9458 50.7714 28.0458C50.7314 28.6258 50.4914 29.0758 50.0514 29.3958C49.6114 29.6958 49.0814 29.8458 48.4614 29.8458C47.8014 29.8458 47.2914 29.6858 46.9314 29.3658C46.5714 29.0458 46.3914 28.6258 46.3914 28.1058C46.3914 27.6258 46.4614 26.8358 46.6014 25.7358C46.7614 24.6158 46.9414 23.4458 47.1414 22.2258C47.3614 21.0058 47.5314 19.9458 47.6514 19.0458C47.8714 17.5258 48.1214 16.0158 48.4014 14.5158C48.6814 13.0158 48.9614 11.5958 49.2414 10.2558C49.3014 9.9558 49.3714 9.6158 49.4514 9.2358C49.5314 8.8358 49.6214 8.3958 49.7214 7.9158C47.7614 7.9758 46.2214 8.1358 45.1014 8.3958C43.9814 8.6558 43.1814 9.0258 42.7014 9.5058C42.2414 9.9658 42.0114 10.5658 42.0114 11.3058C42.0114 11.9858 42.2114 12.6358 42.6114 13.2558C42.6914 13.3958 42.7314 13.5458 42.7314 13.7058C42.7314 14.0858 42.5014 14.4458 42.0414 14.7858C41.6014 15.1058 41.1414 15.2658 40.6614 15.2658C40.3214 15.2658 40.0414 15.1658 39.8214 14.9658C39.4214 14.6258 39.0914 14.1458 38.8314 13.5258C38.5714 12.8858 38.4414 12.1658 38.4414 11.3658C38.4414 9.6658 38.9914 8.3058 40.0914 7.2858C41.2114 6.2458 42.9014 5.4858 45.1614 5.0058C47.4414 4.5258 50.3614 4.2858 53.9214 4.2858C56.1214 4.2858 57.8714 4.3258 59.1714 4.4058C60.4914 4.4858 61.6414 4.6158 62.6214 4.7958ZM62.7711 13.7358C61.9311 13.7358 61.3011 13.5458 60.8811 13.1658C60.4611 12.7658 60.2511 12.2158 60.2511 11.5158C60.2511 10.8158 60.5211 10.2358 61.0611 9.7758C61.6211 9.2958 62.3111 9.0558 63.1311 9.0558C63.8711 9.0558 64.4711 9.2358 64.9311 9.5958C65.3911 9.9558 65.6211 10.4658 65.6211 11.1258C65.6211 11.9258 65.3611 12.5658 64.8411 13.0458C64.3211 13.5058 63.6311 13.7358 62.7711 13.7358ZM62.5311 29.8458C61.2311 29.8458 60.2811 29.3858 59.6811 28.4658C59.1011 27.5458 58.8111 26.3258 58.8111 24.8058C58.8111 23.9058 58.9211 22.7558 59.1411 21.3558C59.3811 19.9358 59.6811 18.6158 60.0411 17.3958C60.2211 16.7558 60.4611 16.3158 60.7611 16.0758C61.0611 15.8358 61.5411 15.7158 62.2011 15.7158C63.2211 15.7158 63.7311 16.0558 63.7311 16.7358C63.7311 17.2358 63.5411 18.3958 63.1611 20.2158C62.6811 22.4158 62.4411 23.9058 62.4411 24.6858C62.4411 25.2858 62.5211 25.7458 62.6811 26.0658C62.8411 26.3858 63.1111 26.5458 63.4911 26.5458C63.8511 26.5458 64.3011 26.2958 64.8411 25.7958C65.3811 25.2958 66.1011 24.5058 67.0011 23.4258C67.2411 23.1458 67.5111 23.0058 67.8111 23.0058C68.0711 23.0058 68.2711 23.1258 68.4111 23.3658C68.5711 23.6058 68.6511 23.9358 68.6511 24.3558C68.6511 25.1558 68.4611 25.7758 68.0811 26.2158C66.1011 28.6358 64.2511 29.8458 62.5311 29.8458ZM78.1039 20.5458C78.1039 22.1258 77.7339 23.6258 76.9939 25.0458C76.2739 26.4458 75.3039 27.5858 74.0839 28.4658C72.8839 29.3458 71.5939 29.8058 70.2139 29.8458C69.9539 33.7058 69.3639 36.9258 68.4439 39.5058C67.5239 42.1058 66.1739 43.4058 64.3939 43.4058C63.3139 43.4058 62.5139 43.0158 61.9939 42.2358C61.4739 41.4558 61.2139 40.3758 61.2139 38.9958C61.2139 37.0358 61.6639 34.7458 62.5639 32.1258C63.4639 29.5258 64.8539 26.6558 66.7339 23.5158C66.7339 20.5958 66.7139 18.5658 66.6739 17.4258C66.6539 16.8458 66.8839 16.3858 67.3639 16.0458C67.8439 15.7058 68.4439 15.5358 69.1639 15.5358C69.5839 15.5358 69.8839 15.6258 70.0639 15.8058C70.2639 15.9658 70.3739 16.2958 70.3939 16.7958C70.3939 17.2958 70.4039 17.6658 70.4239 17.9058C71.0639 17.1058 71.6939 16.5358 72.3139 16.1958C72.9339 15.8358 73.5939 15.6558 74.2939 15.6558C75.4139 15.6558 76.3239 16.1058 77.0239 17.0058C77.7439 17.9058 78.1039 19.0858 78.1039 20.5458ZM70.3639 26.9658C71.0839 26.8058 71.7439 26.4158 72.3439 25.7958C72.9639 25.1558 73.4539 24.3758 73.8139 23.4558C74.1739 22.5158 74.3539 21.5358 74.3539 20.5158C74.3539 19.9158 74.2339 19.4658 73.9939 19.1658C73.7539 18.8458 73.4339 18.6858 73.0339 18.6858C72.3139 18.6858 71.4439 19.4458 70.4239 20.9658C70.4039 21.8458 70.3939 23.1358 70.3939 24.8358C70.3939 25.7558 70.3839 26.4658 70.3639 26.9658ZM64.6339 40.4658C65.1739 40.4658 65.6239 39.2858 65.9839 36.9258C66.3439 34.5858 66.5739 31.6658 66.6739 28.1658C65.8139 30.1658 65.1339 32.0758 64.6339 33.8958C64.1339 35.7158 63.8839 37.2458 63.8839 38.4858C63.8839 39.1258 63.9639 39.6158 64.1239 39.9558C64.2639 40.2958 64.4339 40.4658 64.6339 40.4658ZM93.9967 23.0058C94.2567 23.0058 94.4567 23.1258 94.5967 23.3658C94.7567 23.6058 94.8367 23.9358 94.8367 24.3558C94.8367 25.0958 94.6467 25.7158 94.2667 26.2158C93.3267 27.4358 92.1567 28.3958 90.7567 29.0958C89.3767 29.7958 87.8167 30.1458 86.0767 30.1458C84.7167 30.1458 83.5367 29.9458 82.5367 29.5458C81.5367 29.1258 80.7667 28.5658 80.2267 27.8658C79.7067 27.1458 79.4467 26.3458 79.4467 25.4658C79.4467 24.1458 79.9767 22.9758 81.0367 21.9558C82.0967 20.9358 83.6167 19.9558 85.5967 19.0158L80.6767 19.1358C80.2367 19.1558 79.8967 19.0058 79.6567 18.6858C79.4367 18.3458 79.3267 17.9458 79.3267 17.4858C79.3267 17.0058 79.4367 16.5858 79.6567 16.2258C79.8967 15.8458 80.2167 15.6558 80.6167 15.6558C81.5367 15.6558 82.7667 15.7258 84.3067 15.8658C84.6267 15.8858 85.2067 15.9258 86.0467 15.9858C86.9067 16.0458 87.6267 16.0758 88.2067 16.0758C88.4067 16.0758 88.7867 15.9958 89.3467 15.8358C89.4467 15.8158 89.6367 15.7658 89.9167 15.6858C90.2167 15.6058 90.4667 15.5658 90.6667 15.5658C90.9867 15.5658 91.2467 15.7058 91.4467 15.9858C91.6667 16.2658 91.7767 16.6958 91.7767 17.2758C91.7767 17.9158 91.6267 18.4158 91.3267 18.7758C91.0267 19.1358 90.5567 19.4558 89.9167 19.7358C88.0967 20.5158 86.5867 21.3558 85.3867 22.2558C84.1867 23.1358 83.5867 24.0158 83.5867 24.8958C83.5867 25.4558 83.8467 25.9158 84.3667 26.2758C84.8867 26.6358 85.6567 26.8158 86.6767 26.8158C87.7967 26.8158 88.9267 26.5358 90.0667 25.9758C91.2267 25.4158 92.2667 24.5658 93.1867 23.4258C93.4267 23.1458 93.6967 23.0058 93.9967 23.0058ZM95.5431 29.8458C94.4031 29.8458 93.4731 29.3958 92.7531 28.4958C92.0531 27.5958 91.7031 26.4158 91.7031 24.9558C91.7031 23.3558 92.0731 21.8458 92.8131 20.4258C93.5531 18.9858 94.5331 17.8358 95.7531 16.9758C96.9931 16.0958 98.3031 15.6558 99.6831 15.6558C100.123 15.6558 100.413 15.7458 100.553 15.9258C100.713 16.0858 100.843 16.3858 100.943 16.8258C101.323 16.7458 101.743 16.7058 102.203 16.7058C102.683 16.7058 103.053 16.8258 103.313 17.0658C103.573 17.3058 103.703 17.6458 103.703 18.0858C103.703 18.5458 103.603 19.3458 103.403 20.4858C103.183 21.7058 103.013 22.8758 102.893 23.9958C102.773 25.0958 102.713 26.3358 102.713 27.7158C102.713 28.4758 102.553 29.0258 102.233 29.3658C101.933 29.6858 101.433 29.8458 100.733 29.8458C100.053 29.8458 99.5431 29.6858 99.2031 29.3658C98.8831 29.0258 98.7231 28.4858 98.7231 27.7458L98.7531 27.2658C98.1331 28.9858 97.0631 29.8458 95.5431 29.8458ZM96.7131 26.8158C97.2731 26.8158 97.7831 26.4258 98.2431 25.6458C98.7031 24.8658 99.1131 23.4758 99.4731 21.4758L100.043 18.4458C99.2231 18.4658 98.4631 18.7858 97.7631 19.4058C97.0631 20.0058 96.5031 20.8058 96.0831 21.8058C95.6631 22.8058 95.4531 23.8658 95.4531 24.9858C95.4531 25.5858 95.5631 26.0458 95.7831 26.3658C96.0231 26.6658 96.3331 26.8158 96.7131 26.8158Z" fill="#0A0705"/>
<defs>
<clipPath id="clip0_2070_24219">
<rect width="33.3913" height="33.3913" fill="white"/>
</clipPath>
</defs>
</svg>
