<svg width="24" height="24" viewBox="0 0 24 24" fill="none" xmlns="http://www.w3.org/2000/svg">
<path fill-rule="evenodd" clip-rule="evenodd" d="M9.01813 1C7.56584 1 6.32025 1.41434 5.43864 2.30367C4.55688 3.19299 4.14606 4.44911 4.14606 5.91385C4.14606 7.3786 4.55688 8.63472 5.43864 9.52404C6.32025 10.4134 7.56584 10.8277 9.01813 10.8277C10.4703 10.8277 11.7159 10.4134 12.5975 9.52404C13.4792 8.63472 13.89 7.3786 13.89 5.91385C13.89 4.44911 13.4792 3.19299 12.5975 2.30367C11.7159 1.41434 10.4703 1 9.01813 1ZM9.01541 12.3337C6.53993 12.3337 4.23602 13.0846 2.31808 14.3729C1.68277 14.7997 1.26233 15.3638 1.08851 16.0042C0.916137 16.6403 1.00529 17.2856 1.27131 17.8448C1.7995 18.9554 3.02618 19.7572 4.50605 19.7572H11.7851C12.2158 18.5249 13.3806 17.6415 14.75 17.6415H16.8467C17.0428 17.1319 17.094 16.5646 16.9421 16.0042C16.7683 15.3638 16.3479 14.7997 15.7126 14.3729C13.7948 13.0846 11.4907 12.3337 9.01541 12.3337ZM14.75 19.6226C14.0991 19.6226 13.5714 20.1549 13.5714 20.8113C13.5714 21.4678 14.0991 22 14.75 22H21.8214C22.4723 22 23 21.4678 23 20.8113C23 20.1549 22.4723 19.6226 21.8214 19.6226H14.75Z" fill="#027A4D"/>
</svg>
