<svg width="24" height="24" viewBox="0 0 24 24" fill="none" xmlns="http://www.w3.org/2000/svg">
<path fill-rule="evenodd" clip-rule="evenodd" d="M22.6304 7.38983C22.8276 8.86444 23 10.4112 23 11.9999C23 13.5887 22.8259 15.1345 22.6323 16.6082L22.6317 16.6128C22.4701 17.7865 21.8428 18.8536 20.8899 19.6512C19.939 20.447 18.7131 20.9356 17.4172 21.0584L17.4134 21.0587C15.668 21.2156 13.8551 21.3499 12 21.3499C10.1449 21.3499 8.33202 21.2156 6.58813 21.0587L6.58443 21.0584C5.28852 20.9356 4.06262 20.447 3.1117 19.6512C2.15878 18.8536 1.53151 17.7865 1.37002 16.6128L1.36963 16.61C1.17236 15.1354 1 13.5886 1 11.9999C1 10.4112 1.17237 8.86576 1.36962 7.38992L1.37002 7.38696C1.37816 7.32782 1.38748 7.26895 1.39796 7.21037C3.65281 9.31101 6.01446 11.2741 8.58838 13.0332C10.6458 14.4393 13.354 14.4393 15.4114 13.0332C17.9854 11.274 20.3471 9.31088 22.602 7.21018C22.6125 7.26883 22.6218 7.32775 22.6299 7.38696L22.6304 7.38983ZM21.7792 5.30008C19.4167 7.53962 16.9671 9.60453 14.2966 11.4296C12.9104 12.377 11.0894 12.377 9.70318 11.4297C7.03273 9.60461 4.58323 7.53971 2.22077 5.30022C2.47183 4.95355 2.77095 4.63389 3.1117 4.34867C4.06262 3.55277 5.28852 3.06417 6.58443 2.94141L6.58813 2.94107C8.33199 2.78414 10.1432 2.6499 12 2.6499C13.8568 2.6499 15.6696 2.78414 17.412 2.94108L17.4156 2.94141C18.7114 3.06417 19.9374 3.55277 20.8883 4.34867C21.229 4.63384 21.528 4.95346 21.7792 5.30008Z" fill="#027A4D"/>
</svg>
