<svg width="24" height="24" viewBox="0 0 24 24" fill="none" xmlns="http://www.w3.org/2000/svg">
<path d="M20.9178 13.0273C20.792 13.7091 20.1935 14.0283 19.6415 14.0648C14.6524 14.3951 9.34763 14.3951 4.35846 14.0648C3.80653 14.0283 3.20801 13.7091 3.08225 13.0273C3.0339 12.7653 3 12.4289 3 12.0001C3 11.5714 3.0339 11.235 3.08224 10.9729C3.20801 10.2912 3.80653 9.97201 4.35846 9.93547C9.34763 9.60521 14.6524 9.60522 19.6415 9.93547C20.1935 9.97201 20.792 10.2912 20.9178 10.9729C20.9661 11.235 21 11.5714 21 12.0001C21 12.4289 20.9661 12.7653 20.9178 13.0273Z" fill="#0A0705"/>
</svg>
