<svg width="24" height="24" viewBox="0 0 24 24" fill="none" xmlns="http://www.w3.org/2000/svg">
<path fill-rule="evenodd" clip-rule="evenodd" d="M14.6224 1.01091C14.679 1.01177 14.736 1.01398 14.7934 1.01768C14.8048 2.65676 14.9239 4.37617 15.039 5.67762C15.1821 7.2964 16.4537 8.568 18.0725 8.71109C19.3696 8.82573 21.0819 8.94443 22.7161 8.95646C22.7185 8.99803 22.72 9.03946 22.7209 9.08065C22.7392 9.96055 22.75 10.9321 22.75 12C22.75 15.7477 22.6172 18.3079 22.4917 19.8909C22.3698 21.4288 21.187 22.6219 19.6486 22.7536C18.2255 22.8755 16.0607 23 13.1542 23C11.6145 23 10.283 22.9651 9.15962 22.9141C11.0413 21.3656 11.984 18.9941 11.984 16.6809C11.984 15.7882 11.9399 14.9961 11.8905 14.3883C11.7716 12.9246 10.7968 11.312 8.86425 11.0212C8.12693 10.9103 7.10234 10.8298 5.66485 10.8298C4.83427 10.8298 4.14152 10.8567 3.5624 10.9007C3.58522 7.74515 3.70392 5.53223 3.81675 4.10912C3.93869 2.57116 5.12146 1.3781 6.6599 1.24634C8.08293 1.12447 10.2477 1 13.1542 1C13.6667 1 14.1561 1.00387 14.6224 1.01091ZM19.7358 4.01416C21.0713 5.34964 21.8721 6.68672 22.3007 7.54673C20.8511 7.52005 19.362 7.41534 18.1961 7.31227C17.2552 7.22914 16.521 6.49485 16.4378 5.55395C16.3347 4.38806 16.2299 2.8989 16.2033 1.44935C17.0636 1.87807 18.4005 2.67885 19.7358 4.01416ZM14.3401 13.1702C13.9523 13.1702 13.638 13.4846 13.638 13.8723C13.638 14.2601 13.9523 14.5745 14.3401 14.5745H19.0053C19.3931 14.5745 19.7074 14.2601 19.7074 13.8723C19.7074 13.4846 19.3931 13.1702 19.0053 13.1702H14.3401ZM14.3401 16.9149C13.9523 16.9149 13.638 17.2293 13.638 17.617C13.638 18.0048 13.9523 18.3191 14.3401 18.3191H19.0053C19.3931 18.3191 19.7074 18.0048 19.7074 17.617C19.7074 17.2293 19.3931 16.9149 19.0053 16.9149H14.3401ZM5.66489 12.234C4.27645 12.234 3.32462 12.312 2.67447 12.4098C1.5428 12.5801 0.918998 13.5163 0.838931 14.502C0.791978 15.08 0.75 15.8334 0.75 16.6809C0.75 19.0119 1.87927 21.3203 4.01195 22.4661C4.51369 22.7357 5.12025 23 5.66489 23C6.20951 23 6.8161 22.7357 7.31784 22.4661C9.45053 21.3203 10.5798 19.0119 10.5798 16.6809C10.5798 15.8334 10.5378 15.08 10.4909 14.502C10.4108 13.5163 9.78699 12.5801 8.6553 12.4098C8.00518 12.312 7.05333 12.234 5.66489 12.234ZM8.22832 14.8308C8.60372 15.0832 8.70347 15.5922 8.45108 15.9677L6.24831 19.2442C6.10672 19.4549 5.87544 19.588 5.6222 19.6046C5.3689 19.6213 5.12223 19.5195 4.95429 19.3292L3.41237 17.5817C3.11305 17.2425 3.1454 16.7248 3.48463 16.4255C3.82386 16.1262 4.3415 16.1585 4.64083 16.4977L5.4807 17.4496L7.09148 15.0536C7.34387 14.6782 7.85286 14.5784 8.22832 14.8308Z" fill="#027A4D"/>
</svg>
